<?xml version="1.0" encoding="utf-8"?>
<!-- Generator: Adobe Illustrator 18.0.0, SVG Export Plug-In . SVG Version: 6.00 Build 0)  -->
<!DOCTYPE svg PUBLIC "-//W3C//DTD SVG 1.1//EN" "http://www.w3.org/Graphics/SVG/1.1/DTD/svg11.dtd">
<svg version="1.1" id="圖層_1" xmlns="http://www.w3.org/2000/svg" xmlns:xlink="http://www.w3.org/1999/xlink" x="0px" y="0px"
	 viewBox="0 0 500 500" enable-background="new 0 0 500 500" xml:space="preserve">
<rect x="-5" fill="#FFFFFF" width="509" height="500"/>
<g>
	<path fill="#333333" d="M428.7,363.7c0,4.6,0,8.8,0,13.3c17.7,0,35.1,0,52.9,0c0,2.7,0.3,5.1-0.1,7.4c-0.7,4.5,1.3,6,5.5,5.5
		c0.7-0.1,1.4,0,2.1,0c5.8-0.1,5.8-0.1,5.8,5.6c0,5.3-0.3,10.6,0,15.9c0.2,3.7-1.1,4.5-4.5,4.3c-5.8-0.3-11.7,0-17.5-0.1
		c-3.4-0.1-4.9,1.4-4.7,4.8c0.1,2.6,0,5.3,0,8.3c-3.8,0-7.5,0-11.4,0c0-8,0-16.1,0-24.7c3.1,0,6.1-0.1,9.1,0
		c2.3,0.1,3.3-0.9,3.2-3.2c-0.1-2.5-0.2-5,0-7.5c0.2-3.1-1.2-4.3-4.2-4.2c-6.4,0.2-12.8,0.3-19.2,0.3c-3.1,0-4.2,1.5-4.2,4.4
		c0,10.9,0,21.7-0.1,32.6c0,3.2,1.4,4.6,4.6,4.4c2.8-0.1,5.5,0,8.5,0c0,3.9,0,7.6,0,11.7c-6.7,0-13.2,0-19.7,0
		c-9.6,0-19.2,0.1-28.8-0.1c-3.2-0.1-4.2,1.2-4.1,4.2c0.1,2.9,0,5.8,0,9.3c-3.4,0-6.6,0.1-9.7,0c-2.4-0.1-3.6,0.6-3.6,3.3
		c0.1,7,0,13.9-0.1,20.9c0,2.7,1.2,3.6,3.8,3.6c6.5-0.1,13.1,0,19.6-0.1c2.5,0,3.3,0.6,3.2,3.4c-0.5,8.9-0.4,9-9.5,9
		c-8.2,0-16.5-0.2-24.7,0.1c-4.1,0.2-5.1-1.3-4.8-5c0.3-2.6,0.1-5.2,0.1-8.2c-4.6,0-8.7,0-13.1,0c0-4.3,0-8.2,0-12.7
		c3.1,0,6.2-0.1,9.4,0c2.6,0.1,3.7-0.8,3.8-3.6c0.3-10.5,0.4-10.5-10-10.6c-1,0-1.9,0-3.5,0c0-2.2,0-4.2,0-6.3c0-1.9,0-3.8,0-6.3
		c3.7,0,7-0.1,10.3,0c2.2,0.1,3.4-0.6,3.4-3c-0.1-15.9-0.1-31.8-0.1-47.7c0-2.3-1-3.2-3.2-3.2c-3.3,0.1-6.6,0-10.3,0
		c0-3.6-0.1-6.8,0-10c0.1-2.3-1-3.3-3.3-3.3c-7.1,0.1-14.2,0.1-21.3,0.1c-2.8,0-3.1,1.8-3,3.9c0,7.2,0,14.5,0,22.1
		c-17.5,0-34.8,0-52.6,0c0-3.4-0.1-6.7,0.1-9.9c0.1-0.8,1.3-2.2,2.1-2.3c3.8-0.5,9.1,0.8,11.1-1.3c2-2,0.8-7.3,1.1-11.5
		c7.3,0,14.5-0.2,21.7,0.1c3.6,0.1,5-1,4.8-4.7c-0.2-6.1-0.2-12.3,0-18.4c0.2-3.7-1.2-5-4.9-4.7c-2.9,0.3-5.8,0-9.4,0
		c0-3.4-0.1-6.6,0-9.7c0.1-2.6-0.8-3.9-3.6-3.7c-2.8,0.2-5.6,0-8.7,0c0-8.5,0-16.9,0-25.9c3,0,6-0.2,9,0.1c0.9,0.1,2.1,1.6,2.2,2.5
		c0.4,2.5,0.1,5,0.2,7.5c0.1,2.6,1.3,4.1,4.2,4c6.6-0.1,13.1-0.1,19.6,0c2.6,0,3.8-0.9,3.7-3.7c-0.2-3.3,0-6.6,0-10.4
		c3.7,0,7-0.2,10.3,0c3,0.2,3.9-1.3,3.8-4s0-5.5,0-8.4c3.8,0,7.4,0,11.3,0c0,8.1,0,16.2,0,24.9c-2.7,0-5.5,0.2-8.2,0
		c-3.5-0.3-5.2,0.9-4.8,4.7c0.3,2.7,0,5.5,0,8.7c-3.4,0-6.4,0.1-9.4,0c-2.9-0.1-4,1.3-4,4c0,6.5,0.1,13.1-0.1,19.6
		c-0.1,2.9,1.2,4,4,4c12.9-0.1,10.9,1.1,10.9-10.4c0-0.8,0.1-1.6,0.2-2.6c0.7,0,1.2-0.1,1.7-0.1c3.1,0.2,7.2-0.7,9.1,0.9
		c1.6,1.3,0.8,5.7,0.8,8.7c0,2.5,1.1,3.5,3.5,3.5c3.1,0,6.1,0,9.9,0c0,3,0,5.9,0,8.7c0,1.1-0.1,3.2,0.1,3.2
		c3.8,0.7,7.6,1.2,11.5,1.4c0.8,0,2.3-1.9,2.4-3c0.2-7,0.1-13.9,0.2-20.9c0-2.5-0.9-3.9-3.8-3.7c-2.9,0.2-5.8,0.1-9.1,0.1
		c0-4.2,0-8.1,0-12.5c2.7,0,5.3,0,7.9,0c1,0,2.2,0.3,2.9-0.1c4.3-3,1.3-7.4,1.8-11.1c0.1-0.8-2.1-2.6-3.5-2.8c-3-0.4-6-0.1-9.3-0.1
		c0-8.5,0-16.5,0-24.8c4,0,7.8,0,11.8,0c0,3.2,0,6.2,0,9.2c0,2.2,1.1,3,3.4,3.1c11,0.4,11,0.5,11.3-10.5c0-0.5,0.1-1.1,0.2-2.1
		c1.6,0,3,0,4.5,0c14.6,0,29.3-0.1,43.9,0.1c3.7,0,4.8-1.4,4.9-4.9c0.1-8.9,0.2-9,9.1-9.2c2.8-0.1,3.6-1.1,3.5-3.7
		c-0.2-2.8,0-5.5,0-8.6c4.2,0,8.2,0,12.5,0c0,7.4,0.1,14.8-0.1,22.1c-0.1,3.2,0.8,4.7,4.2,4.4c2.9-0.3,5.8-0.1,9-0.1
		c0.1,1.7,0.2,3.1,0.2,4.4c0,23.3-0.1,46.5,0,69.8c0,3.2-0.7,4.7-4.2,4.4c-2.3-0.3-4.7,0-7.7,0c0-3.3,0-6.6,0-9.9
		c0-17.4-0.1-34.8,0-52.2c0-3.2-1.2-4.7-4.3-4.7c-11,0-22,0-33,0c-3,0-4.2,1.5-4.2,4.4c0,2.8,0,5.6,0,8.7c-3.7,0-7.4,0-11.8,0
		c0-3-0.1-6.1,0-9.2c0.1-2.6-0.9-3.9-3.6-3.9c-11.4,0.2-11.5-1.9-11.3,10.7c0,4.3,0.2,8.6,0.1,13c0,2.7,1,4.2,3.9,4
		c2.9-0.1,5.8,0,8.9,0c0,4.2,0,8,0,12.5c-6.6,0-13.4,0-20.2,0c-5.7,0-5.8,0-5.7,5.6c0.1,9.4-1.5,8.6,8.8,8.6
		C416.8,363.7,422.6,363.7,428.7,363.7z M429.9,410c0-4.9,0-9.7,0-14.6c0-6-0.5-6.4-6.7-6.4c-10,0-20,0.1-30,0
		c-3.2,0-4.5,1.2-4.5,4.4c0.1,11.1,0.1,22.3,0,33.4c0,2.8,1,4,3.9,4c11.1-0.1,22.3-0.1,33.4,0c2.8,0,4-1,3.9-3.9
		C429.7,421.1,429.9,415.5,429.9,410z"/>
	<path fill="#333333" d="M197.5,295.9c-1-1.1-1.9-2.1-2.8-3.2c-1.4-1.7-2.7-3.4-3.9-5.2c0,0,0,0,0,0.1c-0.3,2.7-0.1,5.5-0.1,8.4
		C193.1,296,195.4,295.8,197.5,295.9z"/>
	<path fill="#333333" d="M243.5,319c0,1.2,0,2.4,0,3.7c3.4,0,6.1,0.2,8.9,0c3.3-0.2,4.6,0.9,4.3,4.3c-0.2,3,0,5.9,0,9.1
		c3.6,0,6.5-0.1,9.4,0c2.4,0.1,3.2-0.8,3.1-3.1c-0.1-4.3,0-8.6,0-13c0-1.3,0-2.4,0-3.3c-7.5,1.7-15.4,2.4-23.7,2.4
		C244.8,319.1,244.1,319,243.5,319z"/>
	<path fill="#333333" d="M154.5,269.8c6.3-0.3,12.5,0,18.8-0.1c3,0,4.3,1.1,4.1,4.2c-0.2,2.7,0,5.5,0,8.8c3.3,0,6.2-0.1,9.1,0
		c0.5,0,1,0.1,1.4,0.2c-4.6-7.9-7.8-16.5-9.2-25.5h-28c0,3.1,0.2,5.7,0,8.3C150.3,268.8,151.3,270,154.5,269.8z"/>
	<path fill="#333333" d="M278.6,350.5c-6.1,0.3-12.2,0.2-18.4,0.4c-3,0.1-4.7-0.9-4.5-4.3c0.2-3.1,0.1-6.3,0.1-9.7
		c-3.8,0-7-0.1-10.2,0c-2.4,0.1-3.3-0.9-3.2-3.2c0.1-3,0-6.1,0-9.4c-3.4,0-6.5,0.2-9.5-0.1c-1.1-0.1-2.8-1.4-3-2.3
		c-0.3-1.8-0.4-3.6-0.5-5.5c-9.1-2.9-17.8-8-25.1-14c0.7,6.4-1.5,7.7-9.6,7.8c-0.7,0-1.4,0-2.1,0c-2.6,0.3-3.9-0.8-3.7-3.5
		c0.1-2.9,0-5.8,0-8.8h-11.4v24.8c5.8,0,11.2,0,16.6,0c11.1,0,9.6-1.2,9.9,9.8c0.1,3.6-1.3,4.5-4.7,4.5c-12.8-0.1-25.6-0.1-38.5-0.1
		c-11.6,0-11.6,0-10.2,11.7c0,0.1,0.2,0.2,0.7,0.8c2.7,0,5.9,0.1,9,0c2.6-0.1,3.4,1,3.4,3.5c-0.1,6.8-0.2,13.7,0,20.5
		c0.1,3-1,3.9-3.9,3.8c-10.4-0.1-20.9-0.1-31.3-0.1c-1.5,0-2.9,0.1-4.6,0.2v12.1c1.6,0,2.8,0,4,0c9.9-0.1,19.8-0.2,29.6-0.2
		c6,0,6.1,0.2,6.1,6c0,2.4,0,4.8,0,7c3.7,0,6.6-0.1,9.5,0c2.6,0.1,4.1,1.2,3.9,4.2c-0.2,3,0,6,0,9.1h11.4v-25.3c-3.1,0-6,0-8.9,0
		c-2.4,0.1-3.5-0.9-3.5-3.5c0.1-4.6,0-9.2,0.1-13.8c0.2-12-2.1-10.3,10.7-10.2c2.6,0,3.5,1.1,3.5,3.5c0,3.2,0,6.3,0,9.9
		c1.8,0,3.1,0,4.5,0c8-0.1,8-0.1,8-7.9c0-5.5,0-5.5,6-5.5c6.7,0,6.7,0,6.7-6.5c0-0.4,0-0.8,0-1.3c0-5.4,0-5.4,5.5-5.4
		c9,0,9.1,0,8.8,9c-0.1,3.6,1.1,4.6,4.5,4.4c6.1-0.3,12.3-0.2,18.4-0.3c2.7,0,3.7,1.2,3.6,3.8c-0.1,3.1,0,6.3,0,9.5h12.5
		c0-3,0.2-5.7,0-8.4c-0.3-3.6,1-4.9,4.7-4.8c8.6,0.2,8.5,0,8.4-8.6C282.2,351.2,281.4,350.4,278.6,350.5z"/>
	<path fill="#333333" d="M84.6,177.2c0-4.4,0-8.2,0-12.5c3.1,0,6-0.1,8.9,0c3.2,0.2,4.7-0.8,4.4-4.2c-0.3-2.7,0-5.5,0-9
		c3.2,0,6.1-0.1,9,0c2.8,0.1,3.9-1,4-3.9c0.4-10.9,0.4-10.9,12.2-9.2c0,2.9,0,6,0,9c0,2.6,0.9,4.2,4,4c2.8-0.2,6.4-0.9,8.1,0.5
		c1.4,1.2,0.5,5.1,0.7,7.7c0.1,1.5,0.4,3,0.7,5c4.3,0,8.6,0,13,0c0,4.3,0,8.2,0,12.6c-3.3,0-6.6,0.1-9.9,0c-2.5-0.1-3.4,0.9-3.6,3.4
		c-0.8,10.8-0.8,10.8,9.9,10.9c1.1,0,2.2,0,3.7,0c0,2.3,0,4.2,0,6.1c0,1.9,0,3.9,0,6.3c-4.5,0-8.8,0-13.4,0
		c-0.2,2.2-0.5,3.9-0.4,5.7c0.1,6,0.2,12,0.4,17.9c0.1,2.2-0.7,3.2-3.1,3.3c-9.8,0.3-10,0.1-9.2-9.7c0.4-4.6,0.6-9.2,0.4-13.7
		c-0.1-1.1-2.1-3.1-3.2-3.1c-16-0.2-32-0.2-48.1-0.1c-0.7,0-1.9,0.2-2,0.3c-0.3,4-0.8,7.9-0.6,11.9c0,0.8,3,1.9,4.6,2
		c7.1,0.2,14.2,0.1,21.8,0.1c0,3.3,0.3,6.5-0.2,9.6c-0.1,1.1-1.9,2.5-3.1,2.7c-2.4,0.4-5,0.2-7.5,0.1c-2.5-0.1-3.6,0.8-3.4,3.4
		c0.2,2.9,0,5.8,0,9.1c-4.1,0-7.9,0-12.6,0c0,3.5-0.1,6.6,0,9.8c0.1,2.7-0.8,3.9-3.6,3.7c-2.8-0.1-5.5,0-9,0c0-6.9,0-13.7,0-20.5
		c0-5.4,0-5.4-5.5-5.5c-5.7-0.1-11.4-0.3-17.1-0.5c-5.1-0.1-5.8,0.6-5.8,5.6c0,2.3,0,4.7,0,7.5c-3.2,0-6.2,0.1-9.2,0
		c-2.5-0.1-3.6,1-3.4,3.5c0.1,1.4,0,2.8,0,4.2c0,6.5,0,6.5,6.5,6.5c7.7,0,7.7,0,7.7-7.7c0-1.6,0-3.3,0-5.4c3.6,0,6.9-0.2,10.2,0.1
		c0.8,0.1,2.1,1.6,2.2,2.5c0.3,2.2,0.2,4.5,0,6.7c-0.3,3.2,1.2,4.2,4.2,4c2.6-0.2,5.3,0,8.4,0c0,3.2,0,6.5,0,9.8
		c0,2.6,0.9,4,3.7,3.7c0.3,0,0.6,0,0.8,0c10.9,0.1,11.1,0.4,9.2,12.1c-7.7,0-15.4,0-23.2-0.1c-0.8,0-1.6-1.1-2.2-1.9
		c-0.3-0.5,0-1.4-0.1-2.1c-0.4-2.9,0-7.9-1.3-8.4c-3.4-1.3-7.6-0.9-11.5-0.6c-0.8,0.1-2,2.3-2.2,3.7c-0.3,3-0.1,6-0.1,9.3
		c-3.1-0.2-5.8-0.4-8.6-0.5c-2.8-0.2-4.2,1-4,3.9c0.1,3.1,0,6.1,0,9.4c-2.2,0-4.2,0-6.2,0c-1.9,0-3.8,0-6,0
		c-0.1-1.5-0.2-2.7-0.2-3.9c0-18.9,0.1-37.9-0.1-56.9c0-3.2,0.7-4.2,4.1-4.2c9.3,0,9.3-0.1,9.4-9.6c0-0.9,0-1.9,0-3.3
		c3.2,0,6.1,0,9,0c3,0,4.7-1,4.4-4.5c-0.2-2.9,0-5.8,0-8.8c7.6,0,14.8-0.1,22,0.1c3.7,0.1,5.1-1.3,4.8-4.9c-0.2-2.6,0-5.3,0-8.6
		c2.5,0,4.8,0,7.1,0c6.4,0,6.4,0,6.4-6.5c0-2.1,0-4.1,0-6.5c3.9,0,7.4,0,11.7,0c0,3.1,0.1,6.2,0,9.3c-0.1,2.7,0.8,3.8,3.6,3.7
		c11.3-0.1,22.6-0.1,33.9,0c2.7,0,3.6-1,3.7-3.7c0.4-10.7,0.5-10.7-10.3-10.6C104.1,177.2,94.5,177.2,84.6,177.2z"/>
	<path fill="#333333" d="M243.6,172.9c3.9-0.4,7.8-0.6,11.9-0.7c0-0.1,0-0.1,0-0.1c-0.2-2.4,0.3-6.1-1-6.9c-1.9-1.2-5.1-0.3-7.7-0.5
		c-2.5-0.2-3.6,0.7-3.3,3.3C243.7,169.6,243.6,171.2,243.6,172.9z"/>
	<path fill="#333333" d="M198.8,189.7c1.6,0,2.8,0.2,3.6,0.9c0.6-0.6,1.2-1.1,1.9-1.6c5.8-4.8,11.8-8.3,18-10.8
		c-9.6,0-19.2,0-28.8,0.1c-3.6,0-4.7-1.5-4.5-4.7c0.1-2.9,0-5.7,0-8.6h-24.8v12.3c3.3,0,6.4,0.1,9.4,0c2.7-0.1,3.8,1.1,3.7,3.8
		c-0.1,2.9,0,5.7,0,8.8C184.9,189.7,191.8,189.9,198.8,189.7z"/>
	<path fill="#333333" d="M308.1,198.6c1.4,1.7,2.8,3.5,4,5.4l0,0c3.2,0.1,6.3,0,9.6,0v-12.5h-4.8c-5.2,0-10.5,0-15.7,0
		C303.7,193.7,306,196.1,308.1,198.6z"/>
	<path fill="#333333" d="M50.8,5.2c14.2,0,28.4,0.1,42.6-0.1c2.8,0,3.7,0.8,3.6,3.6c-0.3,9.4-0.6,18.9-0.5,28.4
		c0,18.8,0.2,37.5,0.5,56.3c0.1,3.6-1,4.5-4.5,4.5c-28-0.1-56-0.1-83.9,0c-3.3,0-4.3-0.9-4.3-4.3c0.1-28.1,0.1-56.3,0-84.4
		c0-2.6,0.3-4,3.6-4C22.1,5.4,36.4,5.3,50.8,5.2L50.8,5.2z M50.5,85.2c9.6,0,19.2-0.2,28.8,0.1c4.2,0.1,5.2-1.6,5.2-5.4
		c-0.2-19.2-0.2-38.4-0.1-57.6c0-3.6-1.4-4.9-4.9-4.9c-19.3,0.1-38.7,0.2-58,0.1c-3.4,0-4.7,1.2-4.7,4.6c0.1,19.5,0.1,39,0,58.5
		c0,3.6,1.3,4.6,4.6,4.6C31,85.2,40.8,85.2,50.5,85.2z"/>
	<path fill="#333333" d="M4.2,403.8c1.8,0,3.2,0,4.5,0c27.8,0,55.7,0.1,83.5-0.1c3.7,0,4.6,0.8,4.6,4.6c-0.2,27.7-0.1,55.4,0.1,83.1
		c0,3.3-1,4.3-4.3,4.3c-28.3-0.1-56.5-0.1-84.8-0.1c-2.3,0-3.7-0.3-3.7-3C4.3,463.3,4.2,433.9,4.2,403.8z M83.6,483.3
		c0.3-1.7,0.7-2.9,0.7-4.1c0-19.8,0-39.5,0-59.3c0-2.9-1.2-4.4-4.2-4.4c-19.8,0-39.6,0-59.3,0.1c-2.7,0-4,1.2-4,4.1
		c0,20.1,0.1,40.1,0,60.2c0,2.8,1.2,3.7,3.8,3.6c4.5-0.1,8.9-0.1,13.4-0.1C50.3,483.3,66.8,483.3,83.6,483.3z"/>
	<path fill="#333333" d="M403.1,51.3c0-13.9,0.1-27.8-0.1-41.8c0-3.4,0.7-4.4,4.4-4.4c28,0.2,55.9,0.1,83.9,0.1
		c2.7,0,3.6,0.7,3.6,3.5c-0.1,28.4,0,56.8,0.1,85.2c0,2.9-0.9,3.9-3.8,3.9c-28-0.1-55.9-0.2-83.9-0.1c-3.8,0-4.3-1.3-4.3-4.6
		C403.2,79.1,403.1,65.2,403.1,51.3L403.1,51.3z M449.1,85.2c8.2,0,16.4,0.1,24.7,0c9.3-0.1,9.4,1.7,9.4-8.6c0-1.4,0.1-2.8,0.1-4.2
		c0-16.8,0-33.7,0.2-50.5c0-3.7-1.9-4.4-5-4.4c-19.5,0.1-39,0.1-58.5,0.1c-3.5,0-5.1,1.4-4.8,5c0.2,2.4,0.3,4.7,0.3,7.1
		c-0.2,16.7-0.4,33.3-0.6,50c-0.1,5.1,0.5,5.6,5.5,5.6C429.9,85.2,439.5,85.2,449.1,85.2z"/>
	<path fill="#333333" d="M17.6,349.4c0-3.7-0.1-6.8,0-9.8c0.1-2.5-0.9-3.7-3.4-3.6c-0.1,0-0.3,0-0.4,0c-10.4-0.5-10.4-0.5-9.3-11.7
		c2.9,0,6-0.1,9,0c2.9,0.1,4.3-1,4.2-4.1c-0.2-7.4-0.1-14.7-0.1-22.4c3.9,0,7.5,0,11.8,0c0,11.1,0.1,22.2,0,33.3
		c0,5.4,0.1,5.7,5.5,5.7c6.8,0,13.6,0,21.1,0c0,3,0.2,5.9-0.1,8.7c-0.4,4.2,1.5,5.3,5.4,5.2c11.7-0.2,23.3-0.1,35.1-0.1
		c0,3.8,0,7.6,0,12c-3.7,0-7.3-0.6-10.6,0.1c-6.4,1.5-1.8,6.9-3,10.3c-0.8,2.2,0.1,4,3.2,3.9c3.3-0.2,6.7,0,10.8,0
		c0,3.5,0.3,6.8-0.2,10c-0.2,1-2.6,2.3-4,2.3c-8.9,0.1-17.8-0.3-26.7-0.3c-19.2,0-38.4,0.1-57.6,0.4c-3.5,0.1-4.5-1-4.2-4.2
		c0.2-2.5,0-5,0-8.1c3.2,0,6.1-0.2,8.9,0.1c3.4,0.3,4.9-0.8,4.6-4.4c-0.3-2.9-0.1-5.8-0.1-8.9c4.2,0,7.8,0,11.8,0c0,3.1,0.1,6,0,8.9
		c-0.1,3,0.7,4.5,4.2,4.4c11.1-0.2,22.3-0.2,33.4,0c2.6,0,3.8-0.7,3.8-3.5c0.2-12.3,1.1-10.9-9.9-11c-4.3,0-8.6-0.1-13,0.1
		c-2.7,0.1-3.7-0.6-3.7-3.5c-0.1-9.9-0.2-9.9-10.4-9.9C28.7,349.4,23.4,349.4,17.6,349.4z"/>
	<path fill="#333333" d="M350.4,97.4c0-13.1,0-25.8,0-39c3.3,0,6.3-0.1,9.4,0c2.3,0.1,3.3-0.8,3.2-3.2c-0.2-13.3,1.7-10.9-10.1-11.1
		c-0.8,0-1.6-0.1-2.6-0.2c0-13.1,0-25.9,0-38.9c8,0,15.6-0.1,23.2,0.1c0.7,0,1.8,1.8,1.8,2.8c0.2,6.7,0.2,13.4,0.1,20.1
		c-0.1,2.8,0.9,3.6,3.6,3.6c9.6,0.2,9.7,0.3,9.7,10c0.1,17.4,0,34.8,0.1,52.2c0,2.9-1,3.9-3.9,3.8c-9.7-0.4-8.5,1.5-8.4-8.3
		c0-5.9,0.1-5.9-5.9-5.9c-9.1,0-9.2,0-8.6,9.3c0.2,3.6-0.5,5.4-4.5,4.7C355.3,97.1,353.1,97.4,350.4,97.4z"/>
	<path fill="#333333" d="M190.7,124.3c0-3.8-0.1-7.2,0-10.7c0.1-2.5-0.9-3.6-3.4-3.4c-3.2,0.1-6.3,0-9.7,0c0-4.1,0-7.8,0-11.8
		c3,0,5.9,0,8.8,0c3-0.1,4.7-1.2,4.4-4.6c-0.2-2.7,0-5.5,0-8.5c4.2,0,8,0,12.4,0c0,3.2,0,6.5,0,9.8c0,2.4,0.9,3.6,3.5,3.5
		c12.3-0.5,10.8,0.6,10.8-10.1c0-0.9,0-1.9,0-3.1c4.1,0,8,0,12.6,0c0,3.2,0.1,6.5,0,9.8c-0.1,2.5,0.9,3.5,3.5,3.4
		c11.4-0.3,10.2,1.6,10.4-10.1c0.1-3.8-1.1-5.4-5-5c-2.6,0.3-5.2,0.1-8.4,0.1c0.2-3.2,0.2-6,0.5-8.9c0.3-2.7-0.8-3.8-3.5-3.7
		c-3.3,0.1-6.6,0-10,0c0-4.2,0-8,0-12.2c8.4,0,16.5,0,25.2,0c0,3.2,0.1,6.5,0,9.8c-0.1,2.3,0.9,3.3,3.2,3.3c2.4-0.1,4.8-0.3,7.1,0.1
		c1.1,0.2,2.8,1.5,2.8,2.4c0.3,9.2,0.2,18.3,0.3,27.5c0,7.1,0,14.2,0,22.4c-6.4,0-12.1,0.2-17.9,0c-8.2-0.3-8.2-0.4-7.3-8.7
		c0.5-4.2-0.4-5.2-4.6-5.2c-6.4,0-12.8,0.1-19.2,0c-2.7-0.1-3.9,0.8-3.7,3.6c0.2,2.5,0.4,5.1-0.1,7.5c-0.2,1.1-1.7,2.7-2.8,2.9
		C197.3,124.6,194.2,124.3,190.7,124.3z"/>
	<path fill="#333333" d="M468,150.2c-3.8,0-7.3,0-11.4,0c0-3.2-0.1-6.4,0-9.6c0.1-2.6-1-3.8-3.7-3.7c-3.2,0.1-6.4,0-10.2,0
		c0-4.3,0-8.2,0-12.9c-9,0-17.4,0-26.3,0c0-4.3,0-8,0-12.2c12.5,0,25.2,0,38.5,0c0,2.9,0.1,6,0,9.2s1.5,4.2,4.4,4
		c9.7-0.5,9.7-0.5,9.9-10.3c0-0.8,0.1-1.6,0.2-3.3c8,0,15.9-0.1,23.8,0.1c0.6,0,1.8,1.7,1.8,2.5c0.1,28.8,0.1,57.7-0.1,86.5
		c0,1-1.7,2.8-2.8,3c-2.7,0.4-5.5,0.1-8.9,0.1c0-3.2-0.1-6.1,0-8.9c0.1-3.7-1.1-5.8-5.4-5.3c-2.7,0.3-5.5,0.1-8.1,0.1
		c-0.3-0.6-0.5-0.9-0.5-1.1c-0.4-10.2-0.4-10.3,9.8-10.5c3.1-0.1,4.3-1.2,4.3-4.2c0-11.1,0-22.3-0.1-33.4c0-2.5-1-3.6-3.8-3.7
		c-11.1-0.3-11-0.4-11.3,10.3C468.3,148.1,468.1,149.1,468,150.2z"/>
	<path fill="#333333" d="M4.6,138.1c8.3,0,16.2,0,24.7,0c0,2.6,0,5.2,0,7.8c0,5.3,0.3,5.5,5.4,5.5c6.9,0,13.9,0,21.1,0
		c0,4,0,7.8,0,11.7c-2.9,0-5.6,0-8.4,0c-2.7,0-3.9,1-4,4c-0.2,10.1-0.4,10.1-10.3,10.1c-4.2,0-8.4,0.2-12.5,0
		c-3-0.1-3.9,1.1-3.9,3.9c0.1,10.2,0,20.3,0,30.5c0,1.5,0,3,0,4.7c-4.2,0-8,0-12.2,0C4.6,190.3,4.6,164.4,4.6,138.1z"/>
	<path fill="#333333" d="M483.3,269.8c0-3.2-0.1-6.3,0-9.3c0.1-2.7-0.8-4-3.7-4.3c-10.6-1.1-11.2-0.7-11.3,9.6c0,1.1,0,2.2,0,3.6
		c-3.8,0-7.3,0-11.6,0c0-2.6-0.2-5.5,0-8.3c0.3-3.7-1.4-5-4.9-4.9c-1.8,0.1-3.7-0.5-5.4-0.2c-3.8,0.7-4.1-1.3-3.9-4.2
		c0.2-2.6,0-5.3,0-8.4c-4.2,0-8.2,0-12.4,0c0-4.3,0-8.1,0-12.3c3,0,5.7,0,8.4,0c2.6,0,4.2-0.8,4-3.9c-0.2-2.9,0-5.8,0-8.9
		c8.7,0,17,0,25.9,0c0,6.9,0.2,13.8-0.1,20.7c-0.1,3.9,1,5.4,5.2,5.3c9.2-0.3,9.2-0.1,9.8-9.3c0.1-1.2,0.2-2.5,0.3-3.6
		c0.4-0.2,0.6-0.5,0.8-0.5c10.9-0.4,10.8-0.4,10.7,10.4c-0.1,8.1-0.1,16.1,0.1,24.2c0.1,3.2-0.8,4.7-4.2,4.3
		C488.6,269.6,486.2,269.8,483.3,269.8z"/>
	<path fill="#333333" d="M368.5,204.8c-6.4,0-6.4,0-6.4-6.6c0-2.1,0-4.1,0-6.8c-3.3,0-6.1-0.2-8.8,0c-3.4,0.3-4.7-0.8-4.6-4.4
		c0.2-9,0.1-18.1,0.1-27.1c0-8.5,0-8.4-8.5-8.5c-3.2,0-4.1,1.1-4,4.2c0.2,5.6,0,11.1,0,16.7c0,5.8,0,5.8-5.7,5.9c-2.2,0-4.4,0-6.6,0
		v11.5c0.7,0.1,1.1,0.1,1.5,0.2c11.4,0.2,11.3,0.2,10.8,11.6c-0.1,2.5-1,3.6-3.5,3.5c-3-0.1-6,0-8.9,0v28c0.6,3.4,1,6.9,1.1,10.3
		c2.3,0,4.4-0.1,6.5,0.1c2.8,0.2,4-0.6,3.9-3.7c-0.2-5.8-0.1-11.7,0-17.5c0-5.3,0.2-5.5,5.3-5.5c7.4,0,14.8,0,22.1,0
		c4.1,0,8.2,0,12.3,0V205L368.5,204.8L368.5,204.8z"/>
	<path fill="#333333" d="M149.4,256.6c-3.5,0-6.7,0.1-9.8,0c-2.6-0.1-3.6,1-3.5,3.4c0.1,2.2,0,4.5,0.1,6.7c0.2,2.6-0.8,3.4-3.4,3.3
		c-5.8-0.3-11.7-0.3-17.5-0.3c-1.8,0-3.6,0.3-5.6,0.5c0,4.3,0,8.5,0,12.8c-8.4,0-16.5,0-25,0c0-4,0-7.7,0-12c2.9,0,5.6,0,8.4,0
		c1,0,2.7,0,2.8-0.2c0.6-3.8,1.3-7.7,1.3-11.5c0-0.9-2-2.5-3.3-2.6c-3-0.4-6-0.1-9.3-0.1c0-4.2,0-8,0-12c21.7,0,43.2,0,65,0
		C149.4,248.3,149.4,252.1,149.4,256.6z"/>
	<path fill="#333333" d="M150.6,416.7c8.8,0,17.1,0,25.9,0c0,3.6,0.1,7,0,10.5c-0.1,2.5,1,3.5,3.5,3.5c2.9-0.1,5.8,0,9.1,0
		c0,7.6,0.1,14.8-0.1,21.9c-0.1,3.5,1.3,4.8,4.6,4.7c3-0.1,6.1,0,9.6,0c0,3.3,0.2,6.4-0.1,9.4c-0.1,0.9-1.5,2.2-2.5,2.3
		c-2.5,0.3-5,0.3-7.5,0.1c-3.2-0.3-4.2,1.2-4.1,4.2c0.1,2.9,0,5.8,0,9c-3.9,0-7.5,0-11.7,0c0-3.1-0.2-6,0-8.9
		c0.2-3.4-1.2-4.5-4.4-4.3c-2.8,0.2-5.6,0-8.7,0c0-3.9,0-7.7,0-11.7c2.9,0,5.8,0,8.7,0c2.8,0,4.4-1.1,4.4-4.2
		c0-12.5,0.9-10.7-10.2-10.8c-4.5,0-8.9-0.1-13.4,0.1c-2.2,0.1-3.3-0.5-3.3-3C150.7,432,150.6,424.6,150.6,416.7z"/>
	<path fill="#333333" d="M348.4,482.3c-4.1,0-7.8,0-12.2,0c0-3.4-0.1-6.6,0-9.9c0.1-2.6-1-3.5-3.5-3.4c-2.9,0.1-5.8,0-8.9,0
		c0-4,0-7.7,0-11.7c2.9,0,5.7,0,8.6,0c2.5,0,4-0.9,3.7-3.7c0-0.4,0-0.8,0-1.2c-0.3-11.9,2.2-9.9-10.5-10.1c-2.7-0.1-3.8,1.2-3.7,3.8
		c0,3,0,6.1,0,9.6c-2.3,0-4.4,0-6.4,0c-1.9,0-3.8,0-5.9,0c0-8.4,0-16.5,0-25.1c3.2,0,6.3-0.1,9.4,0c3.5,0.2,4.8-1.4,4.6-4.7
		c-0.2-3,0-6.1,0-9c0.8-0.2,1.2-0.4,1.6-0.4c10-0.5,10.1-0.5,10.1,9.4c0,3.7,1.4,5,5,4.8c2.6-0.2,5.3,0,8.2,0
		C348.4,447.8,348.4,464.9,348.4,482.3z"/>
	<path fill="#333333" d="M389.7,269.8c0-3.5-0.1-6.4,0-9.3c0.1-2.8-1.1-4.2-4-4c-0.1,0-0.3,0-0.4,0c-8.9-0.2-8.9-0.2-8.9-9
		c0-4.3,0.1-8.6,0-12.9c0-2.1,0.2-3.3,3-3.1c10.3,0.4,10.3,0.3,10.3-9.9c0-0.9,0-1.9,0-3.2c8.5,0,16.8,0,25.6,0
		c0,4.1,0.1,8.2,0,12.3c-0.1,4-0.3,8-0.5,12.5c-4.1,0-8.2,0-12.7,0c0,7.8-0.1,15.2,0.1,22.5c0.1,3.1-0.4,4.7-4.1,4.2
		C395.5,269.4,392.9,269.8,389.7,269.8z"/>
	<path fill="#333333" d="M215.8,415.4c-4.1,0-7.7,0-11.9,0c0-8-0.1-15.7,0.1-23.5c0-0.8,1.8-1.9,2.8-2.1c1.9-0.3,3.9-0.3,5.8,0
		c4,0.6,4.8-1.4,4.6-4.9c-0.3-7.9-0.3-7.9,7.6-7.9c10.1,0,20.3,0,30.5,0c0.2,0.9,0.4,1.4,0.4,1.9c0.4,9.9,0.4,10-9.3,10.4
		c-3.1,0.1-4.1,1.1-4,4.2c0.2,7.2,0.1,14.4,0.1,22.1c-3.6,0-6.9,0.2-10.1-0.1c-0.8-0.1-1.9-1.7-2.1-2.8c-0.3-1.9-0.2-3.9,0-5.8
		c0.3-3.4-1.1-4.9-4.5-4.7c-11.3,0.5-10-1.6-10,9.6C215.8,413,215.8,414.1,215.8,415.4z"/>
	<path fill="#333333" d="M149.5,58.5c0.1,0.9,0.2,1.4,0.3,1.9c0.3,10.2,0.3,10.3-9.8,10.5c-2.9,0.1-4,1.1-4,3.8c0.1,2.8,0,5.5,0,8.8
		c-2.9,0-5.8,0.1-8.7,0c-3.1-0.2-4.3,1.3-4.3,4.2c0,1.8,0,3.6,0,5.4c0,0.7,0.3,1.7-0.1,2c-1,1-2.6,2.6-3.3,2.3
		c-2.9-1.3-8.6,3.3-8.9-2.4c-0.7-15.7-0.3-31.4-0.1-47.1c0-0.9,1.7-1.8,2.6-2.7c0.1-0.1,0.3,0,0.4,0c9.2-0.4,9.4-0.4,9.3,8.7
		c-0.1,3.8,1.3,4.8,4.8,4.7C134.9,58.3,142.1,58.5,149.5,58.5z"/>
	<path fill="#333333" d="M441.4,191.4c0.6,12.5,0.6,12.5-10.9,12.5c-12.4,0-24.8-0.1-37.2,0.1c-3.2,0-4.2-1-3.9-4.1
		c0.3-2.6,0.1-5.3,0.1-8.5c3.7,0,7-0.1,10.3,0c2.5,0.1,3.4-0.9,3.4-3.5c-0.1-7.5,0-15,0-22.9c3.8,0,7.5,0,11.7,0c0,2.7,0,5.4,0,8.2
		c0,3.4,1.3,5.2,5,4.9c2.6-0.2,5.2,0,8.3,0c0,3,0.1,5.8,0,8.5c-0.2,3.5,1,5.2,4.8,4.9C435.7,191.2,438.4,191.4,441.4,191.4z"/>
	<path fill="#333333" d="M96.6,309.4c-3.2,0-6.2,0.1-9.3,0c-3.2-0.1-5,1-4.6,4.6c0.3,2.7,0.1,5.5,0.1,8.5c-12.9,0-25.5,0-38.3,0
		c0-8.2,0-16.2,0-24.5c3.8,0,7.4,0,11.5,0c0,2.8,0.1,5.6,0,8.3c-0.2,2.8,0.7,4.1,3.7,4c13.5-0.3,11.2,2,11.4-11c0.1-5,0-10,0-15.4
		c3.7,0,7.4,0,11.7,0c0,3.5,0.1,7,0,10.6c-0.1,2.3,0.8,3.3,3.2,3.2c3.5-0.1,6.9,0,10.7,0C96.6,301.6,96.6,305.2,96.6,309.4z"/>
	<path fill="#333333" d="M123,376c-8.6,0-16.7,0-25.2,0c0-4.1,0-8,0-12.3c3.1,0,6.1-0.1,9.2,0c2.6,0.1,3.8-0.9,3.7-3.7
		c-0.1-3-0.7-6.9,0.9-8.7c1.2-1.5,5.4-0.5,8.3-0.4c3.2,0.1,4.5-1.2,4.2-4.5c-0.3-3-0.1-6-0.1-9.5c3.8,0,7-0.2,10.1,0.1
		c0.8,0.1,2,1.7,2.1,2.6c0.3,3.4,0.1,6.9,0.1,10.7c4.7,0,8.9,0,13.3,0c0,4.2,0,8,0,12.2c-7.1,0-14-0.1-20.9,0
		c-5.5,0.1-5.5,0.1-5.6,5.7C123,370.8,123,373.3,123,376z"/>
	<path fill="#333333" d="M336.2,111.5c12.4,0,24.2,0.1,36-0.1c2.3,0,3.3,0.4,3.2,2.9c-0.1,3,0,6,0,9.5c-3.3,0-6.2,0-9.1,0
		s-4.4,1.1-4.5,4.5c-0.3,8.6-0.5,8.6-9.2,8.7c-9.5,0-18.9,0-28.7,0c0-3.9,0-7.7,0-11.7c2.4,0,4.7-0.2,7,0c3.9,0.3,5.8-0.9,5.3-5.2
		C336,117.4,336.2,114.7,336.2,111.5z"/>
	<path fill="#333333" d="M456.7,469c0-8.8,0-17.1,0-25.8c3,0,5.9-0.1,8.8,0c2.7,0.1,3.8-0.8,3.7-3.6c-0.2-2.9,0-5.8,0-8.8
		c4.3,0,8.1,0,12.5,0c0,2.9,0.2,5.8,0,8.6c-0.2,3,1.1,3.8,3.9,3.8c9.4,0.1,9.4,0.2,9.5,9.8c0,4.2-0.1,8.3,0,12.5
		c0.1,2.4-0.6,3.7-3.3,3.5c-2.6-0.1-5.3,0-8.6,0c0-3.1,0-5.9,0-8.8c0.1-3.2-0.9-4.7-4.6-4.7c-10,0.1-10.1,0-10.3,10
		c-0.1,2.5-0.7,3.6-3.3,3.4C462.4,468.8,459.8,469,456.7,469z"/>
	<path fill="#333333" d="M162.4,56.7c-4.2,0-7.8,0-11.6,0c0-12.5,0-24.8,0-37.7c2.3,0,4.6-0.1,6.9,0c5.2,0.2,6.2-0.7,6.2-5.7
		c0-7.7,0-7.8,8-7.9c5.5-0.1,11.1,0,16.8,0c0,3.9,0,7.8,0,12.2c-2.9,0-5.8,0-8.7,0c-2.6-0.1-3.8,0.9-3.7,3.7c0.1,3,0.7,7.1-0.9,8.7
		c-1.7,1.6-5.8,0.9-8.8,0.7c-3.4-0.2-4.4,1.4-4.4,4.4C162.5,42.1,162.4,49.2,162.4,56.7z"/>
	<path fill="#333333" d="M149.5,5.7c0,3.9,0,7.6,0,12c-3.3,0-6.5,0.1-9.6,0c-2.5-0.1-3.9,0.8-3.8,3.6c0,3,0.7,7.3-0.9,8.6
		c-2,1.6-6,0.8-9.2,0.8c-4.2,0.1-8.3-0.1-12.5,0c-2.1,0.1-3-0.6-3-2.8c0.1-6.5-0.1-13.1,0.1-19.6c0-1.1,1.6-3.1,2.4-3.1
		c11.8-0.2,23.6-0.1,35.4,0C148.7,5.2,149,5.4,149.5,5.7z"/>
	<path fill="#333333" d="M149.7,457.1c0,12.4,0.1,24.1-0.1,35.7c0,1-1.8,2.8-2.8,2.8c-6.5,0.2-13.1,0.1-19.6,0.1
		c-2.3,0-3.3-0.9-3.3-3.2c0-6.5,0.1-13.1-0.1-19.6c0-2.5,1.1-3,3.3-3.1c3.2,0,7.4,0.7,9.1-1c1.7-1.7,0.9-5.9,0.9-9.1
		c0-2.1,0.6-2.9,2.9-2.7C143.1,457.3,146.1,457.1,149.7,457.1z"/>
	<path fill="#333333" d="M164,191.5c4.4,0,8.1,0,12.1,0c0.1,0.8,0.4,1.6,0.4,2.3c0,15.3,0,30.6,0,45.9c0,1.9,0.1,3.6-2.7,3.5
		c-7.5-0.1-15,0-23.1,0c0-3.3-0.2-6.5,0.1-9.6c0.1-0.9,1.9-2.2,3-2.3c10.2-0.6,10.2-0.6,10.2-10.8C164,211,164,201.4,164,191.5z"/>
	<path fill="#333333" d="M403.3,283.1c0-4.5,0-8.1,0-12.3c3.2,0,6.3-0.1,9.4,0c2.4,0.1,3.3-0.9,3.1-3.2c-0.1-1.4-0.1-2.8-0.1-4.2
		c0-6.7,0-6.6,6.5-6.5c6.2,0.1,12.5,0,19.7,0c0,8.3,0.1,16-0.1,23.7c0,0.8-1.5,2.2-2.3,2.2C427.6,283.2,415.7,283.1,403.3,283.1z"/>
	<path fill="#333333" d="M217.4,482.2c0-8.3,0-16.5,0-24.9c4,0,7.7,0,12.1,0c0,2.5,0.1,5.1,0,7.7c-0.2,3.6,1,5.3,5,5.1
		c6.9-0.3,13.9-0.1,21.3-0.1c0,3.6,0.2,6.9-0.1,10.1c-0.1,0.9-1.5,2.1-2.5,2.3c-3.4,0.5-7.9-0.7-9.9,1.1c-1.7,1.5-0.7,6.2-0.8,9.5
		c0,2.2-1,2.9-3.1,2.8s-4.3,0.3-6.2-0.2c-1.2-0.3-2.1-1.8-3.1-2.8c-0.1-0.1,0-0.3,0-0.4c-0.3-3.2,0.5-7.6-1.3-9.3
		c-1.7-1.6-6.1-0.5-9.2-0.6C219,482.4,218.3,482.3,217.4,482.2z"/>
	<path fill="#333333" d="M270.3,137.1c-4.8,0-8.9,0-13.4,0c0-4,0-7.7,0-12.3c7.2,0,14.2-0.2,21.2,0.1c3.6,0.1,5.1-0.9,4.7-4.7
		c-0.3-2.8-0.1-5.7-0.1-8.6c4.4,0,8.3,0,12.3,0c0,8.3,0,16.6,0,25.4c-3.2,0-6.4,0.1-9.5,0c-2.9-0.1-4,1.1-3.8,4c0.2,3,0,6,0,9.3
		c-3.8,0-7.5,0-11.5,0C270.3,146,270.3,141.9,270.3,137.1z"/>
	<path fill="#333333" d="M297.2,31.9c3.8,0,7.3,0,11.5,0c0,6.9,0,13.7,0,20.4c0,5.9,0.2,6.2,6,6.2c6.7,0,13.3,0,20.3,0
		c0,4.1,0,8.1,0,12.3c-12.6,0-25.1,0-37.8,0C297.2,57.9,297.2,45.1,297.2,31.9z"/>
	<path fill="#333333" d="M230.5,443.1c3.5,0,6.7-0.1,9.8,0c2.4,0.1,3.2-1,3.2-3.2c-0.1-2.9,0-5.8,0-9.1c13,0,25.8,0,38.6,0
		c0.1,0.3,0.1,0.4,0.2,0.5c0.1,10.8,0.1,10.8-10.7,10.8c-4.2,0-8.4,0.1-12.5,0c-2.3,0-3.3,0.9-3.3,3.2c0.1,3.2,0,6.4,0,9.9
		c-8.4,0-16.7,0-25.3,0C230.5,451.4,230.5,447.5,230.5,443.1z"/>
	<path fill="#333333" d="M297.1,110c0-8.3,0-16.3,0-24.6c3.8,0,7.3,0,11.5,0c0,2.9,0,5.7,0,8.6c0,3.2,1.4,4.8,4.8,4.7
		c10.7-0.3,10.3,1.6,10.2-10c0-1,0-1.9,0-3.2c3.9,0,7.5,0,11.5,0c0,8.1,0,16.1,0,24.5C322.6,110,310,110,297.1,110z"/>
	<path fill="#333333" d="M388.3,270.9c0.2,3.5,0.5,6.5,0.3,9.3c-0.1,1-1.7,2.7-2.6,2.7c-11.8,0.2-23.6,0.1-35.7,0.1
		c0-8.6,0-17,0-25.7c3.3,0,6.2-0.2,9,0.1c0.9,0.1,1.7,1.5,2.6,2.4c0.1,0.1,0,0.5,0,0.8c0.5,10.2,0.5,10.2,10.9,10.2
		C377.9,270.9,382.9,270.9,388.3,270.9z"/>
	<path fill="#333333" d="M375.5,151.6c0,3.6,0.1,6.9,0,10.2c-0.1,2.2,0.8,3,3,2.9c2.5-0.1,5.1-0.3,7.5,0.1c1.1,0.2,2,1.8,2.9,2.8
		c0.1,0.2,0,0.5,0,0.8c0,8.8,0,8.8-8.8,8.8c-4.7,0-9.5,0.1-14.2-0.1c-1,0-2.7-1.3-2.7-2c-0.2-7.7-0.1-15.5-0.1-23.5
		C367.2,151.6,371,151.6,375.5,151.6z"/>
	<path fill="#333333" d="M97.8,310.4c8.4,0,16.6,0,25,0c0,8.5,0,16.7,0,25.3c-4,0-7.9,0-12.3,0c0-2.9-0.1-5.8,0-8.7
		c0.2-3.2-0.8-4.7-4.2-4.4c-2.7,0.2-5.5,0-8.5,0C97.8,318.5,97.8,314.6,97.8,310.4z"/>
	<path fill="#333333" d="M430.1,362.8c0-4.4,0-8.1,0-12c10.2,0,20.1,0,30.1,0c8.8,0,9.3,0.6,8.1,9.6c-0.1,0.9-1.6,2.3-2.5,2.3
		C454,362.8,442.2,362.8,430.1,362.8z"/>
	<path fill="#333333" d="M321.8,165c0,4,0,7.9,0,12c-8.3,0-16.4,0-24.7,0c0-8.4,0-16.7,0-25.3c3.8,0,7.3,0,11.4,0c0,2.6,0,5,0,7.5
		c0.1,5.3,0.3,5.5,5.3,5.5c2.2,0,4.4,0,6.7,0C320.9,164.7,321.1,164.8,321.8,165z"/>
	<path fill="#333333" d="M441.6,457c0,3.4,0.1,5.9,0,8.4c-0.1,3.1,1.2,4.6,4.5,4.5c2.9-0.1,5.8,0,8.8,0c0,4.2,0,8.1,0,12.2
		c-8.2,0-16.4,0-24.9,0c0-7.7-0.1-15.3,0.1-23c0-0.7,1.3-2,2.1-2C435,456.9,438.1,457,441.6,457z"/>
	<path fill="#333333" d="M441.7,138.2c0,7.9,0.1,15.6-0.1,23.2c0,0.6-2,1.7-3.1,1.8c-7.2,0.2-14.4,0.1-22,0.1c0-3.9,0-7.7,0-11.8
		c3.5,0,6.8-0.1,10.1,0c2.5,0.1,3.5-0.9,3.4-3.5c-0.1-3.2,0-6.3,0-9.8C433.8,138.2,437.3,138.2,441.7,138.2z"/>
	<path fill="#333333" d="M333.5,257c-0.2-0.1-0.5,0-0.8,0c-2.9,0-5.7,0-8.6,0c-0.7,4.4-1.8,8.7-3.2,12.8c3.8,0,7.5,0.1,11.3-0.1
		c1.1,0,3.1-1.8,3-2.5C334.6,263.9,337.4,259.8,333.5,257z"/>
	<path fill="#333333" d="M308.4,416.4c0,4.4,0,8.2,0,12.3c-8.4,0-16.7,0-25.5,0c0-3.3-0.2-6.7,0.1-10.1c0.1-0.8,1.8-2.1,2.8-2.1
		C293.1,416.3,300.5,416.4,308.4,416.4z"/>
	<path fill="#333333" d="M136.2,295.9c-8.8,0-17.1,0-25.5,0c0-4.1,0-7.9,0-12.5c2.3,0,4.6,0,6.9,0c5.1,0.1,10.3,0.3,15.4,0.1
		c2.5-0.1,3.2,0.8,3.2,3.1C136.1,289.6,136.2,292.5,136.2,295.9z"/>
	<path fill="#333333" d="M482.1,495.7c-3.3,0-6.7,0.2-10-0.1c-1.1-0.1-2.8-1.7-2.9-2.8c-1-9.4-0.9-9.4,8.7-9.5c4.4,0,8.9,0.1,13.3,0
		c2.6-0.1,3.7,0.7,3.8,3.5c0.3,8.7,0.4,8.7-8.3,8.9C485.2,495.7,483.7,495.7,482.1,495.7L482.1,495.7z"/>
	<path fill="#333333" d="M322.4,30.6c-3.3,0-6.7-0.1-10,0c-2.2,0.1-2.8-0.8-2.9-2.9c-0.3-9.2-0.4-9.1,8.7-8.8
		c4.4,0.1,8.8-0.2,13.2-0.5c2.8-0.2,4,0.5,4,3.6c0,8.6,0.1,8.6-8.5,8.7C325.4,30.7,323.9,30.7,322.4,30.6
		C322.4,30.7,322.4,30.7,322.4,30.6z"/>
	<path fill="#333333" d="M376.5,150.4c0-8-0.1-15.3,0.1-22.7c0-1,1.9-2.6,2.9-2.7c10.4-0.6,9.2-2.2,9.2,8.8c0,4.6,0.1,9.1-0.2,13.7
		c-0.1,1-1.5,2.6-2.5,2.7C383.1,150.7,380,150.4,376.5,150.4z"/>
	<path fill="#333333" d="M137.4,110c0-8.4,0-16.4,0-24.6c4,0,7.9,0,12,0c0,8.1,0,16.1,0,24.6C145.5,110,141.6,110,137.4,110z"/>
	<path fill="#333333" d="M295,495.7c-7.5,0-14.6-0.1-21.6,0c-2.3,0-3.1-0.8-3.2-3.1c-0.4-9.3-0.5-9.3,8.9-9.3c5.2,0,10.5,0,15.9,0
		C295,487.7,295,491.6,295,495.7z"/>
	<path fill="#333333" d="M231,150.5c0-4.4,0-8.2,0-12.5c7.7,0,15.2,0,22.6,0c0.1,0,0.3,0,0.4,0c3.7,2.5,1.2,6.3,1.6,9.4
		c0.1,0.9-1.7,2.9-2.7,2.9C245.8,150.6,238.6,150.5,231,150.5z"/>
	<path fill="#333333" d="M270.4,32c12.1-1.1,12.1-1.1,12,10.3c-0.1,4.7-0.4,9.4-0.7,14.4c-3.7,0-7.4,0-11.3,0
		C270.4,48.5,270.4,40.4,270.4,32z"/>
	<path fill="#333333" d="M149.7,136.9c-8,0-15.5,0.1-22.9-0.1c-0.9,0-2.3-1.4-2.4-2.3c-0.4-2.3-0.5-4.7-0.1-7c0.2-1,1.8-2.3,2.8-2.4
		c6.4-0.3,12.7-0.2,19.1-0.5c2.7-0.1,3.8,0.8,3.6,3.5C149.6,130.9,149.7,133.6,149.7,136.9z"/>
	<path fill="#333333" d="M203.9,430.8c8.8,0,17.1,0,25.6,0c0,3.7,0,7.3,0,11.5c-5,0-9.9,0-14.8,0c-2.4,0-4.7-0.2-7.1,0
		c-3,0.3-3.9-1-3.8-3.8C204,436,203.9,433.6,203.9,430.8z"/>
	<path fill="#333333" d="M335.3,309.2c-4.1,0-7.7,0-11.5,0c0-8.5,0-16.8,0-25.6c3.1,0,6.2-0.2,9.1,0.1c0.9,0.1,2.2,1.7,2.2,2.6
		C335.4,293.8,335.3,301.3,335.3,309.2z"/>
	<path fill="#333333" d="M414.9,125.1c0,8.7,0,16.7,0,25c-3.6,0-7.4,0-11.7,0c0-7.8-0.1-15.6,0.1-23.4c0-0.6,1.7-1.5,2.6-1.5
		C408.6,125,411.4,125.1,414.9,125.1z"/>
	<path fill="#333333" d="M281.9,110.1c-3.8,0-7.5,0-11.5,0c0-8.3,0-16.4,0-24.7c3.8,0,7.4,0,11.5,0
		C281.9,93.6,281.9,101.7,281.9,110.1z"/>
	<path fill="#333333" d="M229.9,17.6c-4.4,0-8.2,0-12.4,0c0-3.9,0-7.9,0-12.5c3.4,0,6.8-0.1,10.2,0.1c0.8,0.1,2,1.5,2.1,2.3
		C230,10.6,229.9,13.8,229.9,17.6z"/>
	<path fill="#333333" d="M122.8,402.2c-3.5,0.2-6.9,0.3-10.3,0.5c-0.3,0-0.8,0-0.8-0.1c-0.4-3.4-1-6.8-1.1-10.3
		c0-0.8,1.5-2.2,2.4-2.3c3.1-0.3,6.3-0.1,9.8-0.1C122.8,394,122.8,397.8,122.8,402.2z"/>
	<path fill="#333333" d="M176.5,296.1c-4.3,0-8.1,0-12.5,0c0-3.8-1-7.7,0.2-10.8c1.6-4,6.1-0.7,9.3-1.6c0.7-0.2,2.7,1.4,2.8,2.3
		C176.7,289.4,176.5,292.7,176.5,296.1z"/>
	<path fill="#333333" d="M176.2,150.3c-4.2,0-8,0-12.1,0c0-4,0-7.8,0-12c4,0,7.9,0,12.1,0C176.2,142.2,176.2,146,176.2,150.3z"/>
	<path fill="#333333" d="M295.2,336.9c0,4.3,0,8.2,0,12.3c-4.1,0-7.9,0-12.3,0c0-3.4-0.2-6.8,0.1-10.1c0.1-0.8,1.5-2,2.3-2.1
		C288.6,336.8,291.9,336.9,295.2,336.9z"/>
	<path fill="#333333" d="M164.1,70.6c0-4,0-7.8,0-11.9c4.1,0,8,0,12.1,0c0,3.9,0,7.7,0,11.9C172.4,70.6,168.5,70.6,164.1,70.6z"/>
	<path fill="#333333" d="M69.9,177c-4.1,0-8,0-12,0c0-4,0-7.8,0-12c3.8,0,7.7,0,12,0C69.9,168.8,69.9,172.7,69.9,177z"/>
	<path fill="#333333" d="M84.5,150.2c0-3.9,0-7.7,0-12.2c3.4,0,6.8-0.1,10.2,0.1c0.8,0.1,2,1.5,2.1,2.3c0.3,3.2,0.1,6.3,0.1,9.8
		C92.7,150.2,88.7,150.2,84.5,150.2z"/>
	<path fill="#333333" d="M97.5,349.1c0-4.1,0-7.9,0-12c4.1,0,7.9,0,11.9,0c0,4,0,7.8,0,12C105.5,349.1,101.7,349.1,97.5,349.1z"/>
	<path fill="#333333" d="M136.1,416.9c0,3.9,0,7.7,0,11.7c-4,0-7.9,0-12.1,0c-0.1-0.7-0.2-1.4-0.2-2
		C123.8,415.3,124.3,414.9,136.1,416.9z"/>
	<path fill="#333333" d="M164,85.4c4.4,0,8.2,0,12.3,0c0,4,0,7.8,0,12.2c-3.5,0-7,0.1-10.5-0.1c-0.6,0-1.6-1.4-1.7-2.2
		C163.8,92.1,164,88.9,164,85.4z"/>
	<path fill="#333333" d="M122.9,443.1c0,4.4,0,8.2,0,12.3c-4,0-8,0-12.3,0c0-3.5-0.2-6.8,0.1-10.1c0.1-0.8,1.7-2,2.7-2.1
		C116.3,442.9,119.4,443.1,122.9,443.1z"/>
	<path fill="#333333" d="M203.1,70.8c-4.3,0-8.1,0-12.1,0c0-4,0-7.8,0-12.3c3.3,0,6.7-0.1,10.1,0.1c0.7,0,1.9,1.2,2,1.9
		C203.2,63.8,203.1,67.1,203.1,70.8z"/>
	<path fill="#333333" d="M321.9,470.2c0,4.1,0,7.8,0,12.2c-3.5,0-6.9,0.1-10.3-0.1c-0.8-0.1-2-1.4-2-2.3c-0.2-3.1-0.1-6.3-0.1-9.8
		C313.8,470.2,317.9,470.2,321.9,470.2z"/>
	<path fill="#333333" d="M164.2,495.7c0-4.3,0-8.1,0-12.2c4,0,7.8,0,12.3,0c0,3.2,0.2,6.5-0.1,9.8c-0.1,0.9-1.6,2.2-2.5,2.3
		C170.8,495.9,167.7,495.7,164.2,495.7z"/>
	<path fill="#333333" d="M321.7,150.4c-1.4,0-2.5,0-3.6,0c-9.2,0-10-0.9-8.4-10.1c0.2-0.9,1.6-2.1,2.6-2.2c3-0.3,6-0.1,9.4-0.1
		C321.7,142.1,321.7,146.1,321.7,150.4z"/>
	<path fill="#333333" d="M57.9,137c0-4.2,0-8,0-12.3c3.4,0,6.9-0.1,10.3,0.1c0.7,0,1.9,1.3,2,2.1c0.3,2.6,0.3,5.3,0,7.9
		c-0.1,0.8-1.7,2-2.7,2.1C64.4,137.2,61.4,137,57.9,137z"/>
	<path fill="#333333" d="M16.6,350.6c0,4.1,0,7.8,0,12.1c-3.5,0-6.9,0.1-10.3-0.1c-0.7,0-1.9-1-1.9-1.6c-0.2-3-0.2-6.1,0-9.1
		c0-0.5,1.5-1.3,2.4-1.3C10,350.5,13.1,350.6,16.6,350.6z"/>
	<path fill="#333333" d="M164.3,111.5c4.1,0,7.9,0,12,0c0,3.8,0,7.7,0,12.1c-3.9,0-7.7,0-12,0C164.3,119.8,164.3,115.7,164.3,111.5z
		"/>
	<path fill="#333333" d="M243.7,44.2c0-4.3,0-8.1,0-12.5c3.4,0,6.7-0.2,9.9,0.1c0.8,0.1,2.1,2.2,1.9,2.6c-1.9,3.1,3.1,8-2.2,9.6
		C250.4,45,247.1,44.2,243.7,44.2z"/>
	<path fill="#333333" d="M217.7,31.8c1.3,0,2.4,0,3.5,0c2.5,0,4.9,0,7.8,0c0.3,3.6,0.8,7,0.8,10.3c0,0.7-1.7,2-2.6,2.1
		c-3,0.3-6,0.1-9.4,0.1C217.7,40.1,217.7,36.2,217.7,31.8z"/>
	<path fill="#333333" d="M190.9,30.5c0-3.9,0-7.6,0-11.8c3.4,0,6.6-0.1,9.9,0.1c0.8,0.1,1.5,1.3,2.2,2c0.1,0.2,0,0.5,0,0.8
		c0.8,9,0.8,9-8.2,8.9C193.7,30.5,192.6,30.5,190.9,30.5z"/>
	<path fill="#333333" d="M350.1,402.3c0-1.4,0-2.8,0-4.1c0.1-9.1,0.1-9.2,9.1-8.3c1,0.1,2.6,1.5,2.7,2.5c0.4,3.1,0.1,6.3,0.1,10
		c-2.2,0-4.1,0-6,0C354.3,402.3,352.6,402.3,350.1,402.3z"/>
	<path fill="#333333" d="M256.4,404.1c4.5,0,8.5,0,12.6,0c0.1,0.9,0.2,1.5,0.2,2.2c0.3,10-0.6,10.8-10.4,9.4
		c-0.9-0.1-2.3-1.3-2.3-2.1C256.2,410.4,256.4,407.3,256.4,404.1z"/>
	<path fill="#333333" d="M190.9,163.3c0-3.8,0-7.6,0-11.7c4.1,0,7.9,0,12.3,0c0,3.2,0.2,6.4-0.1,9.5c-0.1,0.8-1.6,2-2.6,2.1
		C197.5,163.5,194.4,163.3,190.9,163.3z"/>
	<path fill="#333333" d="M279.3,177.1h2.1c2.2-12.3,1.6-12.9-10.2-12.3c-0.2,0-0.5,0.2-0.7,0.4v8.8
		C273.4,174.8,276.4,175.8,279.3,177.1z"/>
	<path fill="#333333" d="M269.1,457.2c0,3.2-0.1,5.9,0,8.5c0.2,2.6-0.9,3.4-3.4,3.3c-2.9-0.1-5.8,0-9,0c0-4.2,0-8,0-11.8
		C260.9,457.2,264.8,457.2,269.1,457.2z"/>
	<path fill="#333333" d="M137.4,415.4c0-3.8,0-7.5,0-11.3c4,0,7.9,0,12,0c0,3.7,0,7.4,0,11.3C145.5,415.4,141.6,415.4,137.4,415.4z"
		/>
	<path fill="#333333" d="M469.4,204.9c4.1,0,7.9,0,12,0c0,3.7,0,7.4,0,11.3c-4,0-7.9,0-12,0C469.4,212.5,469.4,209,469.4,204.9z"/>
	<path fill="#333333" d="M468,203.8c-3.8,0-7.2,0-11,0c0-4,0-8,0-12.2c3.5,0,7.1,0,11,0C468,195.5,468,199.5,468,203.8z"/>
	<path fill="#333333" d="M375.3,324.5c0,3.7,0,7.3,0,11.2c-3.9,0-7.8,0-12,0c0-3.7,0-7.3,0-11.2
		C367.2,324.5,371.1,324.5,375.3,324.5z"/>
	<path fill="#333333" d="M350.4,417c0.6-0.4,0.7-0.5,0.8-0.5c12.4,0.2,11.2-2.9,10.5,12.1c-3.8,0-7.5,0-11.4,0
		C350.4,424.7,350.4,420.8,350.4,417z"/>
	<path fill="#333333" d="M282,17.5c-4.2,0-7.7,0-11.8,0c0-3.6-0.1-7.1,0.1-10.6c0-0.7,1.1-1.7,1.7-1.8c2.8-0.2,5.5-0.2,8.3,0
		c0.6,0.1,1.6,1.4,1.7,2.3C282.1,10.6,282,13.8,282,17.5z"/>
	<path fill="#333333" d="M454.6,189.5c-0.5,0.1-0.9,0.3-1.3,0.3c-3.4,0-6.9,0-10.9,0c0-3.3-0.3-6.3,0.1-9.2c0.1-0.9,1.8-2.2,3-2.4
		c2.9-0.3,5.8-0.1,9-0.1C454.6,181.8,454.6,185.5,454.6,189.5z"/>
	<path fill="#333333" d="M443,324.5c3.8,0,7.6,0,11.7,0c0,3.8,0,7.5,0,11.4c-1,0.1-1.9,0.2-2.8,0.2C441.1,336.1,441,335.8,443,324.5
		z"/>
	<path fill="#333333" d="M215.6,482.7c0,4.9,0,8.7,0,13.3c-3.9-0.4-8.5,0.3-10.9-1.6c-1.7-1.4-1.9-8-0.2-9.5
		C206.7,482.9,211.4,483.4,215.6,482.7z"/>
	<path fill="#333333" d="M215.4,150.2c-3.9,0-7.5,0-11.3,0c-0.1-0.9-0.1-1.5-0.1-2.2c0.3-11.8-2.5-10.3,11.4-9.8
		C215.4,142.3,215.4,146.3,215.4,150.2z"/>
	<path fill="#333333" d="M323.9,483.5c3.8,0,7.3,0,11.5,0c0,3.5,0.1,6.9-0.1,10.3c-0.1,0.7-1.3,1.8-2.1,1.9c-3,0.2-6,0.1-9.3,0.1
		C323.9,491.5,323.9,487.7,323.9,483.5z"/>
	<path fill="#333333" d="M283.3,83.3c-0.2-0.3-0.4-0.4-0.4-0.5c-0.1-13-2.6-11,12-10.7c0,3.7,0,7.3,0,11.2
		C291.1,83.3,287.3,83.3,283.3,83.3z"/>
	<path fill="#333333" d="M361.6,243.1c-3.7,0-7.1,0-11,0c0-3.9,0-7.7,0-11.6c0.6-0.1,1-0.2,1.4-0.3
		C363.5,230.7,363.7,230.9,361.6,243.1z"/>
	<path fill="#333333" d="M84.7,335.8c0-3.8,0-7.3,0-11.2c3.8,0,7.8,0,11.9,0c0,3.7,0,7.3,0,11.2C92.6,335.8,88.9,335.8,84.7,335.8z"
		/>
	<path fill="#333333" d="M84.5,111.5c3.5,0,6.4,0.1,9.3,0c2.3-0.1,3.6,0.3,2.8,3c-0.3,1.1-0.3,2.2-0.4,3.3c-0.2,5.9-0.2,5.8-6.2,6
		c-1.8,0-3.5,0.2-5.6,0.3C84.5,119.7,84.5,115.7,84.5,111.5z"/>
	<path fill="#333333" d="M270.2,377.4c1.1-0.1,1.6-0.2,2.1-0.2c10.8-0.2,11.6,0.7,9.1,12.1c-3.2,0-6.5,0.1-9.7-0.1
		c-0.6,0-1.5-1.5-1.5-2.3C270.1,383.8,270.2,380.8,270.2,377.4z"/>
	<path fill="#333333" d="M217.6,151.7c4.1,0,7.6,0,11.4,0c0.3,3.9,0.5,7.5,0.8,11.4c-4.2,0-8.2,0-12.2,0
		C217.6,159.2,217.6,155.5,217.6,151.7z"/>
	<path fill="#333333" d="M55.8,111.6c0,4.2,0,8.1,0,12.1c-3.8,0-7.3,0-11.5,0c0-3.4-0.1-6.7,0.1-10c0.1-0.8,1.4-1.9,2.2-2
		C49.5,111.4,52.4,111.6,55.8,111.6z"/>
	<path fill="#333333" d="M297.2,350.8c3.9,0,7.4,0,11.5,0c0,3.5,0.1,6.8-0.1,10.1c0,0.7-1.3,1.8-2.1,1.8c-3,0.2-6,0.1-9.3,0.1
		C297.2,358.5,297.2,354.7,297.2,350.8z"/>
	<path fill="#333333" d="M297.1,468.8c0-3.9,0-7.6,0-11.5c3.8,0,7.4,0,11.3,0c0,4,0,7.6,0,11.5C304.7,468.8,301.1,468.8,297.1,468.8
		z"/>
	<path fill="#333333" d="M231,18.6c3.4,0,6.4-0.2,9.5,0.1c0.7,0.1,1.9,1.5,1.9,2.4c0.2,3,0.1,6.1,0.1,9.3c-3.9,0-7.6,0-11.5,0
		C231,26.5,231,23,231,18.6z"/>
	<path fill="#333333" d="M215.6,83.4c-3.8,0-7.4,0-11.3,0c0-3.7,0-7.4,0-11.3c3.7,0,7.4,0,11.3,0C215.6,75.8,215.6,79.3,215.6,83.4z
		"/>
	<path fill="#333333" d="M188.9,72.2c0,3.7,0,7.3,0,11.1c-3.8,0-7.4,0-11.3,0c0-3.7,0-7.3,0-11.1C181.3,72.2,184.9,72.2,188.9,72.2z
		"/>
	<path fill="#333333" d="M162.1,189.5c-3.6,0-7.2,0-11.1,0c0-3.6,0-7.3,0-11.2c3.7,0,7.2,0,11.1,0
		C162.1,181.9,162.1,185.5,162.1,189.5z"/>
	<path fill="#333333" d="M414.6,404.1c0.2,0.4,0.3,0.5,0.3,0.6c0.2,12.8,3.5,10.9-11.8,10.6c0-1.9,0-3.7,0-5.6c0-1.8,0-3.6,0-5.6
		C407.1,404.1,410.8,404.1,414.6,404.1z"/>
	<path fill="#333333" d="M31.2,71c0-13.3,0-26.1,0-39c12.9,0,25.6,0,38.7,0c0.1,0.9,0.4,1.8,0.4,2.7c0,10.8,0,21.7,0,32.5
		c0,2.1,0.1,3.9-2.9,3.8C55.4,70.9,43.5,71,31.2,71z"/>
	<path fill="#333333" d="M31.3,430.7c12.9,0,25.7,0,38.9,0c0,5.3,0,10.4,0,15.5c0,6.4-0.1,12.8,0,19.2c0,2.3-0.5,3.7-3.2,3.6
		c-11.8-0.1-23.6,0-35.8,0C31.3,456.2,31.3,443.7,31.3,430.7z"/>
	<path fill="#333333" d="M430.2,31.8c12.7,0,25,0,37.7,0c0.2,1,0.5,1.9,0.5,2.8c0,11,0,22,0,33c0,2-0.2,3.4-2.8,3.4
		c-11.7-0.1-23.3,0-35.3,0C430.2,57.9,430.2,45.1,430.2,31.8z"/>
</g>
<path fill="#008080" d="M324.5,269.8c-0.4,2-0.7,4-1.2,6c-2.3,8.2-7.2,14.6-14.1,19.5c-1,0.7-1.1,1.3-0.8,2.3
	c1,3.5,1.9,6.9,2.9,10.7c-0.6-0.2-1-0.3-1.4-0.5c-4.1-1.9-8.1-3.7-12.2-5.7c-0.9-0.5-1.8-0.4-2.7-0.1c-15,3.8-29,2-41.7-7.2
	c-7.7-5.6-12.8-13.1-14.2-22.7c-1.5-10,1.5-18.8,8.1-26.3c6.9-7.8,15.7-12.3,25.9-13.9c12.1-2,23.7-0.1,34.1,6.6
	c9,5.7,14.9,13.7,16.7,24.4c0.1,0.8,0.3,1.5,0.4,2.3C324.5,266.7,324.5,268.2,324.5,269.8z M296,261.1c3.3,0,6-2.7,6-6
	c0-3.3-2.9-6.1-6.1-6.1c-3.3,0.1-6,2.8-6,6.1C289.9,258.4,292.6,261.1,296,261.1z M261.4,254.9c0,3.3,2.7,5.9,5.9,5.9
	c3.2,0,5.8-2.7,5.8-5.9c0-3.2-2.7-6-5.9-6C264.1,249,261.4,251.7,261.4,254.9z"/>
<path fill="#008080" d="M284,227.4c-2.8,0.2-5.5,0.1-8.2,0.5c-14.7,1.8-26.8,8.1-35,20.9c-5.6,8.8-6.9,18.4-4,28.5
	c0.1,0.3,0.2,0.6,0.2,0.9c-2.7,0-5.4,0.3-8.1-0.1c-3.7-0.5-7.4-1.4-11.1-2.1c-0.6-0.1-1.3,0-1.8,0.3c-5,2.3-9.9,4.6-14.9,6.9
	c-0.4,0.2-0.7,0.3-1.4,0.6c0.3-1.2,0.6-2.2,0.8-3.2c0.9-3.3,1.8-6.7,2.7-10c0.3-0.9,0-1.4-0.7-1.9c-8-5.7-14-12.9-16.6-22.4
	c-4.3-15.5,0.2-28.6,11.7-39.4c9.2-8.6,20.3-12.8,32.8-13.7c12.7-0.9,24.5,1.9,35.2,8.9c8.7,5.8,15,13.5,17.9,23.7
	C283.7,226.3,283.8,226.9,284,227.4z M210.8,221c0,4,3.1,7.1,7.1,7.1c3.9,0,7.1-3.3,7.1-7.2s-3.2-7-7.1-7.1
	C214.1,213.9,210.8,217.1,210.8,221z M258.5,220.9c0-3.8-3.1-6.9-6.8-7c-3.8-0.1-7,3.1-7,7s3.2,7,7,7
	C255.4,227.8,258.5,224.7,258.5,220.9z"/>
<rect id="_x3C_Slice_x3E_" x="1.7" y="1.7" fill="none" width="496.7" height="496.7"/>
</svg>
